<svg width="100" height="110" viewBox="0 0 100 110" fill="none" xmlns="http://www.w3.org/2000/svg">
<rect x="0.5" y="0.5" width="99" height="109" rx="4.5" stroke="white" stroke-opacity="0.3"/>
<path d="M30.707 74.752L32.9336 70.4688H34.2109L31.2695 75.8184V79H30.1445V75.8184L27.2031 70.4688H28.4922L30.707 74.752ZM38.623 79C38.5605 78.875 38.5098 78.6523 38.4707 78.332C37.9668 78.8555 37.3652 79.1172 36.666 79.1172C36.041 79.1172 35.5273 78.9414 35.125 78.5898C34.7266 78.2344 34.5273 77.7852 34.5273 77.2422C34.5273 76.582 34.7773 76.0703 35.2773 75.707C35.7812 75.3398 36.4883 75.1562 37.3984 75.1562H38.4531V74.6582C38.4531 74.2793 38.3398 73.9785 38.1133 73.7559C37.8867 73.5293 37.5527 73.416 37.1113 73.416C36.7246 73.416 36.4004 73.5137 36.1387 73.709C35.877 73.9043 35.7461 74.1406 35.7461 74.418H34.6562C34.6562 74.1016 34.7676 73.7969 34.9902 73.5039C35.2168 73.207 35.5215 72.9727 35.9043 72.8008C36.291 72.6289 36.7148 72.543 37.1758 72.543C37.9062 72.543 38.4785 72.7266 38.8926 73.0938C39.3066 73.457 39.5215 73.959 39.5371 74.5996V77.5176C39.5371 78.0996 39.6113 78.5625 39.7598 78.9062V79H38.623ZM36.8242 78.1738C37.1641 78.1738 37.4863 78.0859 37.791 77.9102C38.0957 77.7344 38.3164 77.5059 38.4531 77.2246V75.9238H37.6035C36.2754 75.9238 35.6113 76.3125 35.6113 77.0898C35.6113 77.4297 35.7246 77.6953 35.9512 77.8867C36.1777 78.0781 36.4688 78.1738 36.8242 78.1738ZM45.6836 71.125V72.6602H46.8672V73.498H45.6836V77.4297C45.6836 77.6836 45.7363 77.875 45.8418 78.0039C45.9473 78.1289 46.127 78.1914 46.3809 78.1914C46.5059 78.1914 46.6777 78.168 46.8965 78.1211V79C46.6113 79.0781 46.334 79.1172 46.0645 79.1172C45.5801 79.1172 45.2148 78.9707 44.9688 78.6777C44.7227 78.3848 44.5996 77.9688 44.5996 77.4297V73.498H43.4453V72.6602H44.5996V71.125H45.6836ZM50.7695 79.1172C49.9102 79.1172 49.2109 78.8359 48.6719 78.2734C48.1328 77.707 47.8633 76.9512 47.8633 76.0059V75.8066C47.8633 75.1777 47.9824 74.6172 48.2207 74.125C48.4629 73.6289 48.7988 73.2422 49.2285 72.9648C49.6621 72.6836 50.1309 72.543 50.6348 72.543C51.459 72.543 52.0996 72.8145 52.5566 73.3574C53.0137 73.9004 53.2422 74.6777 53.2422 75.6895V76.1406H48.9473C48.9629 76.7656 49.1445 77.2715 49.4922 77.6582C49.8438 78.041 50.2891 78.2324 50.8281 78.2324C51.2109 78.2324 51.5352 78.1543 51.8008 77.998C52.0664 77.8418 52.2988 77.6348 52.498 77.377L53.1602 77.8926C52.6289 78.709 51.832 79.1172 50.7695 79.1172ZM50.6348 73.4336C50.1973 73.4336 49.8301 73.5938 49.5332 73.9141C49.2363 74.2305 49.0527 74.6758 48.9824 75.25H52.1582V75.168C52.127 74.6172 51.9785 74.1914 51.7129 73.8906C51.4473 73.5859 51.0879 73.4336 50.6348 73.4336ZM55.5273 72.6602L55.5625 73.457C56.0469 72.8477 56.6797 72.543 57.4609 72.543C58.8008 72.543 59.4766 73.2988 59.4883 74.8105V79H58.4043V74.8047C58.4004 74.3477 58.2949 74.0098 58.0879 73.791C57.8848 73.5723 57.5664 73.4629 57.1328 73.4629C56.7812 73.4629 56.4727 73.5566 56.207 73.7441C55.9414 73.9316 55.7344 74.1777 55.5859 74.4824V79H54.502V72.6602H55.5273ZM60.8652 75.7773C60.8652 74.7891 61.0938 74.0039 61.5508 73.4219C62.0078 72.8359 62.6133 72.543 63.3672 72.543C64.1406 72.543 64.7441 72.8164 65.1777 73.3633L65.2305 72.6602H66.2207V78.8477C66.2207 79.668 65.9766 80.3145 65.4883 80.7871C65.0039 81.2598 64.3516 81.4961 63.5312 81.4961C63.0742 81.4961 62.627 81.3984 62.1895 81.2031C61.752 81.0078 61.418 80.7402 61.1875 80.4004L61.75 79.75C62.2148 80.3242 62.7832 80.6113 63.4551 80.6113C63.9824 80.6113 64.3926 80.4629 64.6855 80.166C64.9824 79.8691 65.1309 79.4512 65.1309 78.9121V78.3672C64.6973 78.8672 64.1055 79.1172 63.3555 79.1172C62.6133 79.1172 62.0117 78.8184 61.5508 78.2207C61.0938 77.623 60.8652 76.8086 60.8652 75.7773ZM61.9551 75.9004C61.9551 76.6152 62.1016 77.1777 62.3945 77.5879C62.6875 77.9941 63.0977 78.1973 63.625 78.1973C64.3086 78.1973 64.8105 77.8867 65.1309 77.2656V74.3711C64.7988 73.7656 64.3008 73.4629 63.6367 73.4629C63.1094 73.4629 62.6973 73.668 62.4004 74.0781C62.1035 74.4883 61.9551 75.0957 61.9551 75.9004ZM67.5742 75.7715C67.5742 75.1504 67.6953 74.5918 67.9375 74.0957C68.1836 73.5996 68.5234 73.2168 68.957 72.9473C69.3945 72.6777 69.8926 72.543 70.4512 72.543C71.3145 72.543 72.0117 72.8418 72.543 73.4395C73.0781 74.0371 73.3457 74.832 73.3457 75.8242V75.9004C73.3457 76.5176 73.2266 77.0723 72.9883 77.5645C72.7539 78.0527 72.416 78.4336 71.9746 78.707C71.5371 78.9805 71.0332 79.1172 70.4629 79.1172C69.6035 79.1172 68.9062 78.8184 68.3711 78.2207C67.8398 77.623 67.5742 76.832 67.5742 75.8477V75.7715ZM68.6641 75.9004C68.6641 76.6035 68.8262 77.168 69.1504 77.5938C69.4785 78.0195 69.916 78.2324 70.4629 78.2324C71.0137 78.2324 71.4512 78.0176 71.7754 77.5879C72.0996 77.1543 72.2617 76.5488 72.2617 75.7715C72.2617 75.0762 72.0957 74.5137 71.7637 74.084C71.4355 73.6504 70.998 73.4336 70.4512 73.4336C69.916 73.4336 69.4844 73.6465 69.1562 74.0723C68.8281 74.498 68.6641 75.1074 68.6641 75.9004ZM38.8281 90.293C38.7227 91.1953 38.3887 91.8926 37.8262 92.3848C37.2676 92.873 36.5234 93.1172 35.5938 93.1172C34.5859 93.1172 33.7773 92.7559 33.168 92.0332C32.5625 91.3105 32.2598 90.3438 32.2598 89.1328V88.3125C32.2598 87.5195 32.4004 86.8223 32.6816 86.2207C32.9668 85.6191 33.3691 85.1582 33.8887 84.8379C34.4082 84.5137 35.0098 84.3516 35.6934 84.3516C36.5996 84.3516 37.3262 84.6055 37.873 85.1133C38.4199 85.6172 38.7383 86.3164 38.8281 87.2109H37.6973C37.5996 86.5312 37.3867 86.0391 37.0586 85.7344C36.7344 85.4297 36.2793 85.2773 35.6934 85.2773C34.9746 85.2773 34.4102 85.543 34 86.0742C33.5938 86.6055 33.3906 87.3613 33.3906 88.3418V89.168C33.3906 90.0938 33.584 90.8301 33.9707 91.377C34.3574 91.9238 34.8984 92.1973 35.5938 92.1973C36.2188 92.1973 36.6973 92.0566 37.0293 91.7754C37.3652 91.4902 37.5879 90.9961 37.6973 90.293H38.8281ZM44.1133 92.373C43.6914 92.8691 43.0723 93.1172 42.2559 93.1172C41.5801 93.1172 41.0645 92.9219 40.709 92.5312C40.3574 92.1367 40.1797 91.5547 40.1758 90.7852V86.6602H41.2598V90.7559C41.2598 91.7168 41.6504 92.1973 42.4316 92.1973C43.2598 92.1973 43.8105 91.8887 44.084 91.2715V86.6602H45.168V93H44.1367L44.1133 92.373ZM49.4512 93.1172C48.5918 93.1172 47.8926 92.8359 47.3535 92.2734C46.8145 91.707 46.5449 90.9512 46.5449 90.0059V89.8066C46.5449 89.1777 46.6641 88.6172 46.9023 88.125C47.1445 87.6289 47.4805 87.2422 47.9102 86.9648C48.3438 86.6836 48.8125 86.543 49.3164 86.543C50.1406 86.543 50.7812 86.8145 51.2383 87.3574C51.6953 87.9004 51.9238 88.6777 51.9238 89.6895V90.1406H47.6289C47.6445 90.7656 47.8262 91.2715 48.1738 91.6582C48.5254 92.041 48.9707 92.2324 49.5098 92.2324C49.8926 92.2324 50.2168 92.1543 50.4824 91.998C50.748 91.8418 50.9805 91.6348 51.1797 91.377L51.8418 91.8926C51.3105 92.709 50.5137 93.1172 49.4512 93.1172ZM49.3164 87.4336C48.8789 87.4336 48.5117 87.5938 48.2148 87.9141C47.918 88.2305 47.7344 88.6758 47.6641 89.25H50.8398V89.168C50.8086 88.6172 50.6602 88.1914 50.3945 87.8906C50.1289 87.5859 49.7695 87.4336 49.3164 87.4336ZM54.209 86.6602L54.2441 87.457C54.7285 86.8477 55.3613 86.543 56.1426 86.543C57.4824 86.543 58.1582 87.2988 58.1699 88.8105V93H57.0859V88.8047C57.082 88.3477 56.9766 88.0098 56.7695 87.791C56.5664 87.5723 56.248 87.4629 55.8145 87.4629C55.4629 87.4629 55.1543 87.5566 54.8887 87.7441C54.623 87.9316 54.416 88.1777 54.2676 88.4824V93H53.1836V86.6602H54.209ZM61.2754 85.125V86.6602H62.459V87.498H61.2754V91.4297C61.2754 91.6836 61.3281 91.875 61.4336 92.0039C61.5391 92.1289 61.7188 92.1914 61.9727 92.1914C62.0977 92.1914 62.2695 92.168 62.4883 92.1211V93C62.2031 93.0781 61.9258 93.1172 61.6562 93.1172C61.1719 93.1172 60.8066 92.9707 60.5605 92.6777C60.3145 92.3848 60.1914 91.9688 60.1914 91.4297V87.498H59.0371V86.6602H60.1914V85.125H61.2754ZM67.6445 93C67.582 92.875 67.5312 92.6523 67.4922 92.332C66.9883 92.8555 66.3867 93.1172 65.6875 93.1172C65.0625 93.1172 64.5488 92.9414 64.1465 92.5898C63.748 92.2344 63.5488 91.7852 63.5488 91.2422C63.5488 90.582 63.7988 90.0703 64.2988 89.707C64.8027 89.3398 65.5098 89.1562 66.4199 89.1562H67.4746V88.6582C67.4746 88.2793 67.3613 87.9785 67.1348 87.7559C66.9082 87.5293 66.5742 87.416 66.1328 87.416C65.7461 87.416 65.4219 87.5137 65.1602 87.709C64.8984 87.9043 64.7676 88.1406 64.7676 88.418H63.6777C63.6777 88.1016 63.7891 87.7969 64.0117 87.5039C64.2383 87.207 64.543 86.9727 64.9258 86.8008C65.3125 86.6289 65.7363 86.543 66.1973 86.543C66.9277 86.543 67.5 86.7266 67.9141 87.0938C68.3281 87.457 68.543 87.959 68.5586 88.5996V91.5176C68.5586 92.0996 68.6328 92.5625 68.7812 92.9062V93H67.6445ZM65.8457 92.1738C66.1855 92.1738 66.5078 92.0859 66.8125 91.9102C67.1172 91.7344 67.3379 91.5059 67.4746 91.2246V89.9238H66.625C65.2969 89.9238 64.6328 90.3125 64.6328 91.0898C64.6328 91.4297 64.7461 91.6953 64.9727 91.8867C65.1992 92.0781 65.4902 92.1738 65.8457 92.1738Z" fill="white"/>
<path d="M50 55C60.4934 55 68.9999 46.4934 68.9999 36C68.9999 25.5066 60.4934 17 50 17C39.5066 17 31.0001 25.5066 31.0001 36C31.0001 46.4934 39.5066 55 50 55Z" stroke="white" stroke-width="2" stroke-linejoin="round"/>
<path d="M50 39.0698C53.9045 39.0698 57.0698 35.9045 57.0698 32C57.0698 28.0955 53.9045 24.9302 50 24.9302C46.0955 24.9302 42.9302 28.0955 42.9302 32C42.9302 35.9045 46.0955 39.0698 50 39.0698Z" stroke="white" stroke-width="2" stroke-linejoin="round"/>
<path d="M38.0644 50.7493C38.69 44.7097 43.795 40 50 40C56.1416 40 61.2056 44.6139 61.915 50.5645" stroke="white" stroke-width="2" stroke-linejoin="round"/>
</svg>
